PathFileType	4	(X/Y/Z)	C:\Data\4407\4407cd05.trc
DataRate	CameraRate	NumFrames	NumMarkers	Units	OrigDataRate	OrigDataStartFrame	OrigNumFrames
200.00	200.00	      10	29	mm	200.00	1751	      2000
Frame#	Time	Offset			RShoulder			RUpperArm			RElbow			RForearm			RWrist			LShoulder			LUpperArm			LElbow			LForearm			LWrist			LPSIS			RPSIS			RASIS			RThigh			RKnee			RShank			RAnkle			RHeel			RLat5			RToe			LASIS			LThigh			LKnee			LShank			LAnkle			LHeel			LLat5			LToe			
		X1	Y1	Z1	X2	Y2	Z2	X3	Y3	Z3	X4	Y4	Z4	X5	Y5	Z5	X6	Y6	Z6	X7	Y7	Z7	X8	Y8	Z8	X9	Y9	Z9	X10	Y10	Z10	X11	Y11	Z11	X12	Y12	Z12	X13	Y13	Z13	X14	Y14	Z14	X15	Y15	Z15	X16	Y16	Z16	X17	Y17	Z17	X18	Y18	Z18	X19	Y19	Z19	X20	Y20	Z20	X21	Y21	Z21	X22	Y22	Z22	X23	Y23	Z23	X24	Y24	Z24	X25	Y25	Z25	X26	Y26	Z26	X27	Y27	Z27	X28	Y28	Z28	X29	Y29	Z29	

1751	8.750	405.85529	-226.07050	1418.30664	474.52933	-94.54372	1564.36230	559.48431	-172.83583	1399.12927	635.96655	-112.14867	1265.28027	508.17282	-5.82779	1230.63171	474.86249	79.40693	1328.76196	149.72752	-172.10114	1565.38843	168.87665	-346.39905	1461.64966	88.30363	-430.27905	1385.64294	99.85954	-348.87595	1238.72400	72.22493	-200.44446	1219.18848	282.48672	-236.25807	1077.66479	333.55466	-235.49307	1080.05579	438.04218	-32.98560	1026.01721	377.39478	-132.27394	711.16852	436.82867	-308.60480	577.62909	393.33432	-336.93701	497.72565	382.60040	-640.02209	320.34924	332.07434	-674.11908	369.36380	294.96381	-633.41534	163.31252	399.17072	-661.37042	164.09396	194.09354	-29.50300	1047.01355	235.93307	150.79698	855.21893	180.10454	201.44624	681.20929	223.45107	230.05913	600.69867	192.44196	95.52556	261.13354	240.74287	27.41731	244.75578	175.79251	228.92667	177.36905	286.11942	227.33055	171.40851	
1752	8.755	405.39941	-225.90799	1419.49341	474.09158	-94.27993	1566.13501	560.39594	-171.81737	1401.83008	637.02118	-111.77779	1268.00256	508.55487	-6.42811	1231.45105	473.24762	78.85624	1328.95801	149.20586	-172.98001	1566.64819	170.41298	-346.97256	1463.12305	91.16982	-431.82687	1386.86938	101.20809	-349.74747	1240.34521	71.36362	-201.73575	1221.52625	282.97308	-236.11906	1078.45288	333.70853	-235.32268	1081.40588	437.98843	-32.33406	1028.18762	378.20428	-129.17665	712.35889	437.70416	-306.80295	578.85522	394.62094	-338.23065	499.83380	381.95361	-647.61786	332.83795	330.96747	-680.39172	382.60016	294.74234	-644.60406	175.15053	398.81320	-672.10834	177.39600	193.36740	-29.70134	1046.74548	234.55446	148.58737	850.72192	180.78726	197.14490	677.44299	223.33746	227.91064	598.34430	192.49297	108.76093	253.22180	239.58655	40.69463	234.66988	179.07225	245.60793	173.99599	289.17258	242.69473	169.62840	
1753	8.760	404.73929	-225.71910	1420.71277	473.49142	-94.13971	1567.59082	561.50983	-171.00674	1404.24390	638.02881	-111.38166	1270.70862	509.04028	-7.40777	1231.64893	471.84256	78.50823	1328.40479	148.60538	-173.80820	1567.66638	171.76158	-347.39606	1464.14844	93.75222	-433.09714	1387.49438	102.23526	-350.24960	1241.41345	70.47150	-202.60817	1223.43787	283.22806	-235.97551	1078.90100	334.03949	-235.17952	1082.32678	437.72324	-31.42014	1030.11658	379.20071	-126.08194	713.00433	438.60114	-304.56909	579.20282	395.77698	-338.85715	501.45834	381.03879	-654.15576	345.51035	328.96713	-685.02704	395.78500	294.69650	-654.94086	187.59610	398.55014	-682.51038	190.88383	192.89461	-29.55785	1046.59937	232.84811	146.12996	845.11963	180.20697	191.65007	672.29437	223.71797	224.85971	595.63208	192.49129	121.24673	245.66072	238.77211	53.27339	225.14464	182.19427	261.51785	171.61092	292.22678	256.50690	168.07043	
1754	8.765	403.92688	-225.54971	1422.19543	472.93985	-93.79195	1568.87744	562.33746	-170.46956	1406.51111	638.68298	-111.23378	1272.90051	509.56757	-8.68269	1231.20984	470.59134	78.36061	1326.86792	148.07269	-174.55780	1568.34314	172.89793	-347.78140	1464.92102	96.06989	-434.19754	1387.64417	103.03461	-350.47327	1241.95300	69.46384	-203.16632	1224.94751	283.59360	-235.91040	1079.07800	334.26303	-234.85522	1083.00195	437.52719	-30.74605	1031.67212	379.99551	-122.88436	713.50751	439.36761	-301.89999	579.25763	397.08597	-339.03815	502.48657	379.85632	-659.73151	358.13394	327.24707	-687.83618	409.19006	294.75378	-664.44916	199.83746	398.77356	-692.98468	204.94740	192.42804	-29.56977	1046.40662	231.27550	143.91402	839.05823	180.51222	186.24138	666.90320	224.00648	220.95345	592.21631	193.22626	133.32362	238.77199	238.09464	64.88872	216.06422	185.33507	275.80753	170.10045	295.30017	269.10886	166.63690	
1755	8.770	402.91504	-225.60599	1423.69067	472.26587	-93.31294	1570.04688	562.92352	-170.07292	1408.52930	639.41852	-111.52550	1274.85962	509.85999	-10.25581	1230.22876	469.77960	78.46310	1324.49097	147.43427	-175.18944	1568.89551	173.81818	-347.88736	1465.25110	97.98065	-434.77460	1387.26575	103.55745	-350.37463	1242.14697	68.41608	-203.32846	1226.01624	283.87857	-235.79358	1078.98999	334.49667	-234.67804	1083.41626	437.34259	-29.97722	1033.15771	380.42557	-119.86020	713.79858	440.01660	-298.89856	579.05457	398.39590	-338.89502	503.14957	379.50439	-664.95514	371.38605	324.88205	-690.58142	422.37384	294.25067	-672.07959	211.92786	398.95755	-702.52911	219.37997	192.09856	-29.30876	1046.26331	230.00565	141.15353	832.43903	180.91150	180.43190	661.04205	225.04782	216.65472	588.45782	194.20862	144.38927	232.39368	237.91296	75.64642	207.59761	188.31023	289.21460	169.13370	298.45502	280.30881	165.00862	
1756	8.775	402.10910	-225.54865	1425.04053	471.73981	-92.84466	1570.86621	563.54315	-169.95280	1410.29004	639.81897	-111.98780	1276.53430	510.41348	-11.92667	1228.73950	468.41357	77.43071	1320.90491	146.75403	-175.68378	1569.13977	174.45729	-347.91370	1465.19971	99.70503	-435.00864	1386.45215	103.70422	-349.95889	1241.76807	67.10224	-203.36356	1226.61707	284.29056	-235.45981	1078.60693	334.82095	-234.18884	1083.58398	437.12476	-28.88674	1034.28650	380.85419	-116.59927	713.80151	440.79587	-295.50079	578.41656	399.20193	-338.11984	503.39005	374.90289	-668.55389	384.26422	322.34634	-692.24420	435.23361	295.54321	-681.81641	224.06438	399.15353	-711.00946	233.69855	191.83496	-29.18369	1046.12451	229.02400	138.26740	825.35645	182.15636	175.28128	654.65436	225.56213	211.65923	584.12982	195.34378	154.33937	226.64284	238.18903	85.22540	199.78978	191.17287	300.62848	168.86517	301.68063	289.67969	163.58154	
1757	8.780	401.24292	-225.50592	1426.43982	471.04385	-92.13661	1571.57727	563.93250	-169.87904	1411.96118	640.19696	-112.88084	1277.96716	510.96863	-14.22094	1226.77673	467.77090	77.24776	1316.78027	146.08289	-176.15393	1569.10352	174.82651	-347.87634	1464.71277	101.03075	-434.94058	1385.12012	103.65073	-349.13269	1240.95923	65.81255	-202.69936	1226.82190	284.55420	-235.30099	1077.99292	335.00592	-233.89513	1083.40698	437.21854	-28.11709	1035.07629	381.31360	-113.52307	713.90283	441.37027	-291.73541	577.82794	400.13934	-336.91757	503.00693	373.18430	-671.73358	396.93979	320.01678	-692.72650	448.02576	296.58398	-689.46564	236.06465	399.81500	-718.64130	248.34938	191.50763	-28.87836	1045.93994	228.06296	135.10690	817.91718	183.44281	169.44650	647.96466	227.12993	206.94612	579.13385	196.68410	163.33514	221.31841	238.90480	93.83889	192.70377	193.90985	310.37622	168.71074	303.75079	299.70404	162.05611	
1758	8.785	400.48346	-225.50368	1427.63318	470.36865	-91.51759	1571.85059	564.12384	-169.95316	1413.46228	640.26489	-113.94765	1279.22913	511.62323	-16.75094	1224.14624	467.44501	76.59147	1311.87512	145.39635	-176.46275	1568.69421	174.98781	-347.58423	1463.82715	101.91164	-434.53799	1383.25647	103.26717	-347.92804	1239.61194	64.37280	-201.95473	1226.69214	285.19595	-235.14340	1077.18689	335.31583	-233.57082	1083.05396	435.96918	-26.13095	1037.32996	381.52335	-110.58880	713.78680	441.90839	-287.39557	576.49255	400.62903	-334.87219	502.36859	371.51175	-673.99170	409.55548	317.35223	-691.99377	460.44162	297.09479	-696.23199	248.48077	399.91159	-726.23999	263.49783	191.23688	-28.74058	1045.90417	227.62671	131.76819	810.35443	182.96005	162.35118	640.47119	228.81194	201.63979	573.28320	198.41013	170.50351	216.77747	239.91048	100.96838	186.46230	196.42015	318.51416	168.39561	306.35046	307.43558	160.48386	
1759	8.790	399.91641	-225.39261	1428.69507	469.69897	-90.90484	1571.87036	564.09851	-170.06462	1414.81152	640.24274	-115.36295	1280.01868	512.04889	-19.50982	1221.19531	467.16400	76.00831	1306.43591	144.72401	-176.67558	1568.01599	174.85924	-347.23978	1462.58655	102.43806	-433.77011	1380.82959	102.47005	-346.43500	1237.91028	62.83506	-200.56525	1226.00330	285.60266	-235.01932	1076.18872	335.74579	-233.44449	1082.56421	435.83127	-25.29255	1037.89502	381.40170	-107.48817	713.48169	442.24878	-282.60446	574.86780	401.06793	-332.15067	501.38904	371.80060	-674.96588	423.97525	314.62885	-689.92712	472.55728	298.44162	-702.53497	260.39154	400.28720	-731.28113	278.90079	190.97166	-28.63330	1045.83411	227.23196	128.45889	802.47321	183.74657	155.78870	632.97766	231.37486	193.68872	567.42499	200.09367	176.12781	212.53284	241.54654	106.89593	180.82654	198.82596	324.84491	167.49536	308.63046	313.60782	158.91525	
1760	8.795	399.44003	-225.34767	1429.58228	468.94135	-90.33469	1571.40869	563.73138	-170.30418	1416.09814	640.06207	-117.12392	1280.65283	512.92145	-22.58591	1217.77600	467.23672	75.36184	1300.08459	143.98685	-176.83897	1566.96960	174.52959	-346.93768	1460.81067	102.60146	-432.86148	1377.94006	101.61662	-344.49387	1235.78699	61.08505	-198.89432	1225.03748	286.07169	-234.69331	1074.99792	336.30310	-233.20438	1081.65027	435.33893	-24.12460	1038.07092	381.44797	-103.95418	712.99878	442.87906	-277.29300	572.79474	401.49985	-328.80017	500.32538	370.79721	-674.40442	435.60596	312.57404	-686.73297	483.43942	299.22330	-707.72668	272.71683	400.25156	-741.58783	294.38376	190.65897	-28.62390	1045.71594	227.14915	125.17716	794.31720	184.52847	149.37590	625.78656	233.54474	187.38968	561.27039	201.97235	180.05429	208.67763	243.67027	111.29365	175.89259	200.93736	329.35471	165.82407	310.92368	318.20728	156.99857	
